<svg xmlns="http://www.w3.org/2000/svg" viewBox="0 0 128 128">
    <path fill="#fff"
          d="M116.8 65.08c0 23.467-25.072 42.49-56 42.49s-56-19.023-56-42.49c0-14.55 9.6-27.401 24.352-35.023C43.904 22.435 53.088 14.628 60.8 14.628S75.104 21 92.448 30.058C107.2 37.677 116.8 50.53 116.8 65.08Z"/>
      <path fill="#fff"
          d="M39.248 27.234c7.152-4.135 16.656-11.896 26-11.911a15.372 15.372 0 0 0-4.448-.695c-3.872 0-8 1.93-13.2 4.83-1.808 1.018-3.68 2.144-5.664 3.317-3.728 2.222-8 4.736-12.8 7.251C13.904 37.972 4.8 51.071 4.8 65.08v1.836c9.696-33.033 27.312-35.547 34.448-39.682z"/>
    <path
          d="M56.192 18.532A24.553 24.553 0 0 1 53.867 29.1a25.407 25.407 0 0 1-6.683 8.671c-.448.386-.096 1.127.48.91 5.392-2.02 12.672-8.068 9.6-20.272-.128-.695-1.072-.51-1.072.123zm3.632 0a24.474 24.474 0 0 1 3.646 10.12c.445 3.587.08 7.224-1.07 10.662-.192.54.496 1.003.88.556 3.504-4.32 6.56-12.899-2.592-22.156-.464-.4-1.184.216-.864.756zm4.416-.262a25.702 25.702 0 0 1 7.521 7.925A24.71 24.71 0 0 1 75.2 36.414c-.016.13.02.26.101.365a.543.543 0 0 0 .718.117.509.509 0 0 0 .221-.313c1.472-5.384.64-14.564-11.472-19.332-.64-.246-1.056.587-.528.957zM34.704 34.315a27.418 27.418 0 0 0 9.91-5.222 26.262 26.262 0 0 0 6.842-8.663c.288-.556 1.2-.34 1.056.277-2.768 12.343-12.032 14.92-17.792 14.58-.608.016-.592-.802-.016-.972z"/>
    <path fill="rgba(224, 231, 255, 0.75)"
          d="M72.08 76.343c-.719 2.839-2.355 5.383-4.672 7.267a11.07 11.07 0 0 1-6.4 2.9 11.13 11.13 0 0 1-6.608-2.9c-2.293-1.892-3.906-4.436-4.608-7.267a1.073 1.073 0 0 1 .05-.5 1.11 1.11 0 0 1 .272-.428 1.19 1.19 0 0 1 .958-.322h19.744a1.185 1.185 0 0 1 .947.33 1.073 1.073 0 0 1 .317.92z"/>
    <path d="M54.656 82.514a8.518 8.518 0 0 1 2.97-2.347 8.836 8.836 0 0 1 3.734-.862 9.78 9.78 0 0 1 6.4 2.608c.368-.386.72-.787 1.056-1.188-2.035-1.87-4.726-2.933-7.536-2.978a10.487 10.487 0 0 0-4.335.975 10.125 10.125 0 0 0-3.489 2.666c.378.396.779.772 1.2 1.126z"/>
    <path d="M60.944 87.436a12.078 12.078 0 0 1-7.12-3.086c-2.477-2.02-4.22-4.75-4.976-7.791-.054-.27-.045-.55.027-.817a1.83 1.83 0 0 1 .389-.726 2.25 2.25 0 0 1 .81-.595 2.32 2.32 0 0 1 .998-.192h19.744c.343-.007.683.06.996.196a2.3 2.3 0 0 1 .812.591c.182.212.313.46.382.728.07.267.076.545.018.815-.756 3.042-2.5 5.771-4.976 7.791a12.078 12.078 0 0 1-7.104 3.086zm-9.872-11.417c-.256 0-.32.108-.336.139.676 2.638 2.206 4.999 4.368 6.742a10.122 10.122 0 0 0 5.84 2.7 10.207 10.207 0 0 0 5.84-2.67c2.155-1.745 3.679-4.106 4.352-6.741a.333.333 0 0 0-.14-.113.348.348 0 0 0-.18-.026z"/>
    <path fill="rgba(224, 231, 255, 0.75)"
          d="M85.152 77.3c5.17 0 9.36-2.377 9.36-5.308s-4.19-5.307-9.36-5.307c-5.17 0-9.36 2.376-9.36 5.307 0 2.931 4.19 5.307 9.36 5.307zm-48.432 0c5.17 0 9.36-2.377 9.36-5.308s-4.19-5.307-9.36-5.307c-5.17 0-9.36 2.376-9.36 5.307 0 2.931 4.19 5.307 9.36 5.307z"/>
    <path  d="M41.12 69.863a9.052 9.052 0 0 0 4.902-1.425 8.578 8.578 0 0 0 3.254-3.812 8.22 8.22 0 0 0 .508-4.913 8.41 8.41 0 0 0-2.408-4.357 8.92 8.92 0 0 0-4.514-2.33 9.12 9.12 0 0 0-5.096.48 8.755 8.755 0 0 0-3.96 3.131 8.287 8.287 0 0 0-1.486 4.725c0 2.252.927 4.412 2.577 6.005 1.65 1.594 3.888 2.492 6.223 2.496zm39.632 0a9.054 9.054 0 0 0 4.915-1.403 8.582 8.582 0 0 0 3.275-3.802 8.22 8.22 0 0 0 .528-4.917 8.408 8.408 0 0 0-2.398-4.368 8.92 8.92 0 0 0-4.512-2.344 9.12 9.12 0 0 0-5.103.473 8.756 8.756 0 0 0-3.967 3.13 8.287 8.287 0 0 0-1.49 4.73c-.004 2.245.914 4.4 2.555 5.994 1.64 1.593 3.869 2.495 6.197 2.507z"/>
    <path fill="#fff"
          d="M38.4 61.902a3.4 3.4 0 0 0 1.844-.531c.547-.35.974-.847 1.227-1.43a3.088 3.088 0 0 0 .195-1.847 3.16 3.16 0 0 0-.902-1.639 3.351 3.351 0 0 0-1.696-.878 3.426 3.426 0 0 0-1.916.179 3.29 3.29 0 0 0-1.489 1.176 3.113 3.113 0 0 0-.559 1.776c0 .844.347 1.654.964 2.253a3.374 3.374 0 0 0 2.332.94zm39.632 0a3.4 3.4 0 0 0 1.844-.531c.547-.35.974-.847 1.227-1.43a3.088 3.088 0 0 0 .195-1.847 3.16 3.16 0 0 0-.902-1.639 3.351 3.351 0 0 0-1.696-.878 3.426 3.426 0 0 0-1.916.179 3.29 3.29 0 0 0-1.489 1.176 3.113 3.113 0 0 0-.559 1.776c0 .84.342 1.644.953 2.242.61.598 1.44.94 2.311.952z"/>
</svg>
