<?xml version="1.0" standalone="no"?>
<!DOCTYPE svg PUBLIC "-//W3C//DTD SVG 20010904//EN"
 "http://www.w3.org/TR/2001/REC-SVG-20010904/DTD/svg10.dtd">
<svg version="1.0" xmlns="http://www.w3.org/2000/svg"
 width="1024.000000pt" height="1024.000000pt" viewBox="0 0 1024.000000 1024.000000"
 preserveAspectRatio="xMidYMid meet">

<g transform="translate(0.000000,1024.000000) scale(0.100000,-0.100000)"
fill="#ffffff" stroke="none">
<path d="M0 5120 l0 -5120 5120 0 5120 0 0 5120 0 5120 -5120 0 -5120 0 0
-5120z m6847 3280 c203 -23 362 -121 466 -287 15 -24 27 -47 27 -53 0 -7 -729
-10 -2256 -10 l-2255 0 27 50 c87 160 269 280 454 299 109 12 3437 13 3537 1z
m-1138 -676 c15 -20 21 -41 21 -80 l0 -54 -75 0 -75 0 0 54 c0 69 26 106 75
106 24 0 39 -7 54 -26z m671 6 c19 -19 20 -33 20 -249 0 -126 -3 -237 -6 -246
-7 -18 -55 -45 -79 -45 -9 0 -27 11 -40 25 l-25 24 0 231 0 231 25 24 c30 31
77 33 105 5z m-2799 -26 l31 -31 28 29 28 28 229 0 c229 0 230 0 252 -24 16
-17 22 -33 19 -57 -2 -28 -8 -34 -33 -39 -44 -9 -71 -29 -94 -71 -26 -46 -27
-95 -1 -137 23 -38 75 -72 109 -72 22 0 23 -3 18 -41 -3 -23 -12 -49 -21 -57
-22 -23 -98 -30 -299 -31 l-179 -1 -28 29 c-25 25 -31 27 -41 14 -28 -33 -68
-43 -168 -43 -96 0 -102 1 -131 28 -20 17 -33 40 -37 64 -5 34 -3 38 28 51 51
22 81 59 86 110 7 57 -15 99 -73 140 -41 28 -45 35 -40 61 7 33 31 64 61 77
11 5 66 8 123 6 99 -2 103 -3 133 -33z m2149 -414 c0 -86 -64 -127 -124 -79
-22 18 -26 28 -26 75 l0 54 75 0 75 0 0 -50z m2084 -205 c123 -162 191 -271
282 -450 203 -401 323 -814 370 -1274 44 -430 -36 -1002 -203 -1446 -121 -321
-341 -693 -550 -928 l-33 -37 0 2152 1 2153 25 -30 c14 -16 63 -79 108 -140z
m-5314 -1980 c-1 -1169 -5 -2125 -9 -2125 -9 0 -115 125 -192 227 -218 289
-392 674 -498 1099 -69 277 -86 441 -85 829 0 304 2 328 28 470 86 474 223
849 447 1220 86 143 280 405 300 405 6 0 9 -858 9 -2125z m4536 1634 c136 -25
275 -135 338 -269 l31 -65 3 -1609 c1 -1051 -1 -1629 -8 -1665 -25 -137 -122
-266 -248 -328 l-57 -28 -1970 -3 c-1481 -2 -1984 0 -2025 9 -159 34 -285 163
-326 332 -16 66 -17 195 -15 1653 1 1542 1 1583 21 1645 49 162 187 288 353
324 51 11 402 14 1953 14 1322 1 1908 -2 1950 -10z m89 -4267 c-3 -3 -11 0
-18 7 -9 10 -8 11 6 5 10 -3 15 -9 12 -12z m-5 -18 c0 -8 -19 -13 -24 -6 -3 5
1 9 9 9 8 0 15 -2 15 -3z m-30 -18 c0 -3 -15 -15 -32 -27 l-33 -22 25 26 c23
24 40 33 40 23z m-133 -42 c-3 -3 -12 -4 -19 -1 -8 3 -5 6 6 6 11 1 17 -2 13
-5z m17 -26 l26 -11 -38 -27 c-57 -42 -221 -134 -375 -211 -471 -236 -977
-359 -1482 -359 -628 0 -1205 156 -1725 468 -193 115 -204 123 -189 133 8 4
828 6 1824 3 1148 -3 1821 -1 1840 5 42 13 90 13 119 -1z"/>
<path d="M3604 7591 c-38 -23 -68 -92 -60 -136 14 -70 75 -125 141 -125 37 0
98 36 118 70 22 37 21 97 -1 139 -35 66 -133 91 -198 52z"/>
<path d="M3350 6406 c-116 -32 -192 -96 -243 -204 -29 -61 -32 -76 -32 -162 0
-87 3 -101 32 -161 39 -79 102 -140 181 -177 50 -24 69 -27 157 -27 88 1 107
4 157 28 35 17 77 50 111 87 158 170 131 425 -58 555 -98 67 -204 89 -305 61z
m174 -256 c45 -40 62 -90 47 -139 -43 -146 -261 -124 -261 26 0 87 52 143 131
143 40 0 55 -6 83 -30z"/>
<path d="M5682 6119 c-71 -35 -93 -110 -52 -177 38 -62 36 -62 606 -62 571 0
566 -1 605 64 37 60 13 137 -53 173 -30 17 -74 18 -548 21 -509 2 -516 2 -558
-19z"/>
<path d="M4397 5999 c-104 -25 -195 -97 -243 -195 l-29 -59 -3 -947 c-2 -936
-2 -947 18 -1002 29 -77 95 -146 172 -182 53 -24 76 -29 143 -29 126 0 67 -37
1042 660 246 176 468 340 493 365 85 84 116 190 86 293 -30 104 -66 132 -786
613 -360 240 -682 450 -715 465 -62 30 -108 35 -178 18z m292 -396 c97 -64
267 -177 378 -252 112 -75 304 -204 428 -287 124 -83 246 -168 271 -190 43
-36 45 -41 34 -64 -15 -31 -51 -58 -905 -665 -154 -109 -302 -217 -330 -238
-67 -53 -89 -60 -125 -42 -63 32 -60 -6 -61 892 0 450 -3 835 -6 855 -5 33 -1
42 30 73 60 60 81 54 286 -82z"/>
<path d="M3190 5169 c-40 -16 -69 -50 -81 -91 -8 -31 -6 -46 9 -81 32 -72 52
-77 317 -77 251 0 269 4 305 63 37 61 15 136 -52 177 -30 18 -50 20 -253 19
-121 0 -231 -5 -245 -10z"/>
<path d="M6573 5160 c-65 -40 -86 -114 -48 -177 30 -51 62 -63 168 -63 80 0
98 3 121 21 78 61 73 165 -10 220 -42 27 -186 27 -231 -1z"/>
<path d="M3196 4660 c-41 -13 -75 -48 -87 -91 -10 -32 -9 -43 10 -82 37 -76
49 -79 328 -75 l243 3 31 31 c59 59 46 153 -28 201 -24 16 -54 18 -248 20
-121 1 -233 -2 -249 -7z"/>
<path d="M6581 4652 c-100 -50 -105 -174 -9 -232 48 -29 176 -28 228 1 97 54
94 181 -5 229 -54 26 -165 27 -214 2z"/>
<path d="M6659 4159 c-57 -34 -69 -63 -69 -172 0 -74 -4 -99 -16 -111 -13 -13
-46 -16 -197 -17 -257 -1 -292 -6 -333 -52 -28 -30 -34 -45 -34 -82 0 -38 6
-52 34 -83 l34 -37 273 -3 c232 -2 280 0 325 14 69 21 131 75 160 138 21 46
24 65 24 186 0 116 -3 139 -20 167 -40 67 -118 89 -181 52z"/>
<path d="M3174 3990 c-60 -24 -87 -106 -56 -166 37 -71 49 -74 317 -74 269 0
280 3 315 75 25 53 14 101 -36 144 l-35 31 -242 -1 c-133 0 -252 -4 -263 -9z"/>
</g>
</svg>
